#!OML:ASF F:\VICON\USERDATA\INSTALL\rory7\rory7.ASF
:FULLY-SPECIFIED
:DEGREES
861
root -0.0732925 18.7885 4.26285 -5.08666 -6.85737 -0.574869
lowerback 7.44546 0.994724 0.276713
upperback -3.95875 1.14277 -2.8234
thorax -8.30427 0.450551 -3.31151
lowerneck -14.1376 -6.14317 -7.07629
upperneck -24.6426 -5.87588 11.0799
head -4.60016 -2.7664 4.70291
rclavicle -6.36111e-015 1.27222e-014
rhumerus 58.1916 -19.9794 -44.4374
rradius 122.174
rwrist 14.676
rhand -48.9464 16.3074
rfingers 7.12502
rthumb -21.5776 -12.5105
lclavicle -6.36111e-015 1.27222e-014
lhumerus -39.1494 13.8958 65.064
lradius 20.3563
lwrist -10.2133
lhand -25.2368 25.0422
lfingers 7.12502
lthumb 1.28282 55.0181
rfemur 0 0 0
rtibia 0
rfoot 0 0
rtoes 0
lfemur 9.48435 -10.9017 -19.0298
ltibia 10.7158
lfoot -15.2538 23.7183
ltoes -3.08113
862
root -0.073408 18.7881 4.26549 -5.11559 -6.94911 -0.520591
lowerback 7.54125 1.02456 0.261697
upperback -4.05594 1.1764 -2.84091
thorax -8.46372 0.464114 -3.33261
lowerneck -14.3334 -6.21151 -7.05307
upperneck -24.7723 -5.95859 11.0248
head -4.61059 -2.80067 4.67917
rclavicle -1.98785e-015 -1.51076e-014
rhumerus 58.2979 -19.9504 -44.3246
rradius 122.205
rwrist 14.3466
rhand -48.8888 16.6714
rfingers 7.12502
rthumb -21.5222 -12.1528
lclavicle -1.98785e-015 -1.51076e-014
lhumerus -39.2596 14.0263 64.8717
lradius 20.1246
lwrist -10.3889
lhand -25.3771 24.0904
lfingers 7.12502
lthumb 1.14733 54.0671
rfemur 0 0 0
rtibia 0
rfoot 0 0
rtoes 0
lfemur 9.60904 -10.8579 -19.0996
ltibia 10.5648
lfoot -15.2161 23.7681
ltoes -2.99471
863
root -0.0751674 18.7872 4.2654 -5.17153 -7.06237 -0.532206
lowerback 7.68353 1.04146 0.270613
upperback -4.16131 1.19664 -2.83246
thorax -8.66042 0.469946 -3.33961
lowerneck -14.4521 -6.23884 -6.8557
upperneck -24.9758 -6.023 10.8531
head -4.66982 -2.83798 4.59418
rclavicle -3.97569e-016 -1.59028e-015
rhumerus 58.4141 -19.9362 -44.2608
rradius 122.218
rwrist 14.0605
rhand -48.8869 16.5415
rfingers 7.12502
rthumb -21.5204 -12.283
lclavicle -3.97569e-016 -1.59028e-015
lhumerus -39.3789 14.2957 64.5688
lradius 19.7428
lwrist -10.5969
lhand -25.595 23.0348
lfingers 7.12502
lthumb 0.93692 53.0125
rfemur 0 0 0
rtibia 0
rfoot 0 0
rtoes 0
lfemur 9.74756 -10.7906 -19.0884
ltibia 10.4467
lfoot -15.1637 23.8149
ltoes -3.09174
864
root -0.0759402 18.7852 4.26597 -5.24873 -7.14804 -0.519636
lowerback 7.80095 1.04048 0.264751
upperback -4.21809 1.19177 -2.83388
thorax -8.7916 0.465376 -3.34279
lowerneck -14.6303 -6.21945 -6.49569
upperneck -25.2714 -6.05649 10.5369
head -4.76689 -2.86671 4.43861
rclavicle 4.96962e-015 -7.95139e-015
rhumerus 58.5835 -19.9811 -44.2149
rradius 122.203
rwrist 13.9128
rhand -48.9081 15.7908
rfingers 7.12502
rthumb -21.5408 -13.0313
lclavicle 4.96962e-015 -7.95139e-015
lhumerus -39.4215 14.6492 64.2567
lradius 19.4822
lwrist -11.1278
lhand -25.4231 23.1911
lfingers 7.12502
lthumb 1.10296 53.168
rfemur 0 0 0
rtibia 0
rfoot 0 0
rtoes 0
lfemur 9.89231 -10.7926 -19.131
ltibia 10.3688
lfoot -15.1571 23.9125
ltoes -3.22221
865
root -0.0761494 18.7834 4.26798 -5.28756 -7.20017 -0.475438
lowerback 7.89498 1.03259 0.233605
upperback -4.30576 1.17299 -2.85017
thorax -8.94399 0.454471 -3.34574
lowerneck -14.7349 -6.18077 -6.48356
upperneck -25.4546 -5.9881 10.5546
head -4.81625 -2.83279 4.44879
rclavicle -3.12092e-014 1.66979e-014
rhumerus 58.7623 -20.0123 -44.2263
rradius 122.163
rwrist 13.6066
rhand -48.8572 16.4295
rfingers 7.12502
rthumb -21.4918 -12.3983
lclavicle -3.12092e-014 1.66979e-014
lhumerus -39.5468 15.1652 63.7904
lradius 19.4347
lwrist -12.3132
lhand -24.442 24.0549
lfingers 7.12502
lthumb 2.05044 54.0247
rfemur 0 0 0
rtibia 0
rfoot 0 0
rtoes 0
lfemur 9.99083 -10.7684 -19.1979
ltibia 10.3093
lfoot -15.1807 23.9323
ltoes -3.27776
866
root -0.07626 18.7836 4.26979 -5.25996 -7.23904 -0.451568
lowerback 7.93023 1.03219 0.239048
upperback -4.42688 1.16847 -2.86768
thorax -9.09703 0.448016 -3.37204
lowerneck -14.8037 -6.19468 -7.02839
upperneck -25.3876 -5.85943 11.1374
head -4.74489 -2.74707 4.72727
rclavicle -2.38542e-015 -6.36111e-015
rhumerus 58.9401 -20.0302 -44.3468
rradius 122.18
rwrist 13.1577
rhand -48.6925 18.0732
rfingers 7.12502
rthumb -21.3337 -10.7725
lclavicle -2.38542e-015 -6.36111e-015
lhumerus -39.6934 15.5402 63.4214
lradius 19.1711
lwrist -12.3698
lhand -24.788 22.7151
lfingers 7.12502
lthumb 1.71632 52.688
rfemur 0 0 0
rtibia 0
rfoot 0 0
rtoes 0
lfemur 10.003 -10.757 -19.2253
ltibia 10.2586
lfoot -15.1596 23.945
ltoes -3.36946
867
root -0.0768012 18.784 4.27188 -5.22645 -7.2737 -0.458809
lowerback 7.93713 1.04173 0.284051
upperback -4.54244 1.18317 -2.87804
thorax -9.22577 0.449076 -3.41497
lowerneck -14.7185 -6.2252 -6.60628
upperneck -25.9695 -5.981 10.7442
head -4.97145 -2.82737 4.552
rclavicle 1.8487e-014 -1.03368e-014
rhumerus 59.1025 -20.0544 -44.4461
rradius 122.225
rwrist 12.9286
rhand -48.578 18.4468
rfingers 7.12502
rthumb -21.2237 -10.4113
lclavicle 1.8487e-014 -1.03368e-014
lhumerus -39.82 15.7204 63.1951
lradius 19.1214
lwrist -12.6584
lhand -24.447 23.227
lfingers 7.12502
lthumb 2.04564 53.1969
rfemur 0 0 0
rtibia 0
rfoot 0 0
rtoes 0
lfemur 10.0046 -10.7307 -19.2064
ltibia 10.1933
lfoot -15.116 23.9721
ltoes -3.36819
868
root -0.0797605 18.7833 4.27221 -5.24302 -7.32125 -0.470014
lowerback 8.05643 1.05392 0.300531
upperback -4.652 1.19661 -2.88995
thorax -9.41528 0.450133 -3.447
lowerneck -14.7122 -6.21128 -6.50019
upperneck -26.3472 -5.96766 10.6618
head -5.10483 -2.82615 4.52372
rclavicle -3.97569e-016 -3.97569e-015
rhumerus 59.2762 -20.079 -44.5032
rradius 122.221
rwrist 12.9454
rhand -48.4762 18.0745
rfingers 7.12502
rthumb -21.1259 -10.7946
lclavicle -3.97569e-016 -3.97569e-015
lhumerus -39.9277 15.981 62.9154
lradius 19.0404
lwrist -13.0271
lhand -24.0952 24.0992
lfingers 7.12502
lthumb 2.3854 54.0656
rfemur 0 0 0
rtibia 0
rfoot 0 0
rtoes 0
lfemur 10.0648 -10.5976 -19.1618
ltibia 10.1232
lfoot -15.0742 23.9218
ltoes -3.20636
869
root -0.082186 18.7823 4.27354 -5.28615 -7.36908 -0.397645
lowerback 8.21452 1.06672 0.235439
upperback -4.74622 1.19747 -2.9362
thorax -9.61321 0.44887 -3.46883
lowerneck -14.7433 -6.19334 -6.49289
upperneck -26.6773 -5.91571 10.7242
head -5.20953 -2.80336 4.55706
rclavicle -2.46493e-014 3.10104e-014
rhumerus 59.4962 -20.1599 -44.5967
rradius 122.201
rwrist 12.8584
rhand -48.3904 18.0998
rfingers 7.12502
rthumb -21.0435 -10.7785
lclavicle -2.46493e-014 3.10104e-014
lhumerus -40.0512 16.5516 62.4204
lradius 18.8335
lwrist -13.5016
lhand -24.1671 23.8194
lfingers 7.12502
lthumb 2.316 53.7866
rfemur 0 0 0
rtibia 0
rfoot 0 0
rtoes 0
lfemur 10.1366 -10.5442 -19.2408
ltibia 10.0882
lfoot -15.0815 23.923
ltoes -3.01874
870
root -0.083635 18.7817 4.27746 -5.31151 -7.37595 -0.352939
lowerback 8.28889 1.07139 0.211945
upperback -4.80949 1.19483 -2.97498
thorax -9.72721 0.445165 -3.50175
lowerneck -14.7767 -6.19669 -6.49851
upperneck -27.0423 -5.89019 10.7811
head -5.32359 -2.79193 4.5918
rclavicle 4.77083e-015 1.51076e-014
rhumerus 59.7188 -20.3547 -44.6583
rradius 122.178
rwrist 12.7257
rhand -48.5611 17.8711
rfingers 7.12502
rthumb -21.2075 -10.9888
lclavicle 4.77083e-015 1.51076e-014
lhumerus -40.1075 17.0218 62.0157
lradius 18.5482
lwrist -13.7709
lhand -24.5331 22.5476
lfingers 7.12502
lthumb 1.96252 52.5184
rfemur 0 0 0
rtibia 0
rfoot 0 0
rtoes 0
lfemur 10.1796 -10.5912 -19.3059
ltibia 10.0732
lfoot -15.1172 23.9625
ltoes -2.93414
871
root -0.0860381 18.7821 4.27774 -5.32321 -7.3781 -0.415297
lowerback 8.37905 1.0715 0.296509
upperback -4.8623 1.20214 -2.98759
thorax -9.83692 0.440275 -3.5695
lowerneck -14.8927 -6.21952 -6.6023
upperneck -27.3041 -5.86622 10.9236
head -5.38416 -2.77411 4.66465
rclavicle 2.66371e-014 -4.77083e-015
rhumerus 59.9328 -20.6644 -44.7295
rradius 122.146
rwrist 12.8567
rhand -48.8392 17.2713
rfingers 7.12502
rthumb -21.4746 -11.5584
lclavicle 2.66371e-014 -4.77083e-015
lhumerus -40.1152 17.6776 61.4992
lradius 18.1354
lwrist -14.2345
lhand -25.0011 21.5016
lfingers 7.12502
lthumb 1.51047 51.476
rfemur 0 0 0
rtibia 0
rfoot 0 0
rtoes 0
lfemur 10.2113 -10.6073 -19.2337
ltibia 10.0579
lfoot -15.1024 23.9782
ltoes -3.01491
872
root -0.0882624 18.7821 4.27555 -5.36253 -7.3715 -0.455214
lowerback 8.55687 1.06825 0.354184
upperback -4.94427 1.19945 -3.00535
thorax -10.0324 0.430171 -3.63028
lowerneck -14.9294 -6.23622 -6.77143
upperneck -27.599 -5.81579 11.1498
head -5.46243 -2.74348 4.78056
rclavicle -9.14409e-015 1.59028e-014
rhumerus 60.1408 -20.9286 -44.8602
rradius 122.15
rwrist 13.0291
rhand -48.9639 16.9588
rfingers 7.12502
rthumb -21.5944 -11.8572
lclavicle -9.14409e-015 1.59028e-014
lhumerus -40.2392 18.6935 60.7047
lradius 17.7999
lwrist -15.4227
lhand -25.5682 20.9665
lfingers 7.12502
lthumb 0.962813 50.944
rfemur 0 0 0
rtibia 0
rfoot 0 0
rtoes 0
lfemur 10.2384 -10.6067 -19.1852
ltibia 10.0899
lfoot -15.0924 23.9692
ltoes -3.08011
873
root -0.0895527 18.7823 4.27697 -5.40076 -7.35025 -0.432664
lowerback 8.69923 1.06531 0.340412
upperback -5.03205 1.18749 -3.03085
thorax -10.2156 0.420167 -3.6565
lowerneck -14.7613 -6.22883 -6.86695
upperneck -28.1316 -5.75034 11.3217
head -5.65618 -2.71528 4.8835
rclavicle 6.36111e-015 -1.03368e-014
rhumerus 60.3417 -21.133 -44.9682
rradius 122.204
rwrist 13.0481
rhand -49.0794 16.4554
rfingers 7.12502
rthumb -21.7052 -12.3478
lclavicle 6.36111e-015 -1.03368e-014
lhumerus -40.3573 19.4668 60.0659
lradius 17.564
lwrist -16.5678
lhand -26.3794 19.8777
lfingers 7.12502
lthumb 0.179343 49.8574
rfemur 0 0 0
rtibia 0
rfoot 0 0
rtoes 0
lfemur 10.2437 -10.596 -19.2174
ltibia 10.1756
lfoot -15.0856 23.9501
ltoes -3.13463
874
root -0.0910044 18.7824 4.27889 -5.42579 -7.34817 -0.433046
lowerback 8.78959 1.07747 0.34408
upperback -5.06702 1.20146 -3.04078
thorax -10.3074 0.424222 -3.67636
lowerneck -14.6247 -6.2509 -6.91736
upperneck -28.7319 -5.73704 11.4181
head -5.87098 -2.71176 4.95614
rclavicle 3.47873e-014 -8.74653e-015
rhumerus 60.5928 -21.4461 -45.0637
rradius 122.28
rwrist 13.0622
rhand -49.1572 15.8762
rfingers 7.12502
rthumb -21.78 -12.9184
lclavicle 3.47873e-014 -8.74653e-015
lhumerus -40.3463 19.8401 59.798
lradius 17.4348
lwrist -17.0402
lhand -26.8954 19.1043
lfingers 7.12502
lthumb -0.319072 49.0838
rfemur 0 0 0
rtibia 0
rfoot 0 0
rtoes 0
lfemur 10.2454 -10.5998 -19.2244
ltibia 10.2444
lfoot -15.1175 23.9406
ltoes -3.0128
875
root -0.0931749 18.7821 4.27863 -5.43594 -7.32683 -0.4708
lowerback 8.89623 1.07168 0.371984
upperback -5.11521 1.19398 -3.05124
thorax -10.4247 0.415576 -3.708
lowerneck -14.5685 -6.26223 -6.95709
upperneck -29.1882 -5.70582 11.546
head -6.0273 -2.70019 5.02965
rclavicle 1.07344e-014 1.03368e-014
rhumerus 60.8519 -21.7277 -45.2426
rradius 122.316
rwrist 13.1788
rhand -49.2356 15.7925
rfingers 7.12502
rthumb -21.8552 -12.9932
lclavicle 1.07344e-014 1.03368e-014
lhumerus -40.3238 19.8395 59.7459
lradius 17.4493
lwrist -16.9413
lhand -26.9022 19.1241
lfingers 7.12502
lthumb -0.325606 49.1036
rfemur 0 0 0
rtibia 0
rfoot 0 0
rtoes 0
lfemur 10.2382 -10.6298 -19.1761
ltibia 10.2797
lfoot -15.1684 23.9217
ltoes -2.88255
876
root -0.0944309 18.7834 4.28047 -5.40425 -7.27841 -0.437531
lowerback 8.96237 1.05638 0.34534
upperback -5.19604 1.16265 -3.0964
thorax -10.5566 0.397188 -3.74201
lowerneck -14.6107 -6.24351 -7.02367
upperneck -29.4853 -5.62168 11.7275
head -6.11711 -2.66077 5.11684
rclavicle 3.99557e-014 -5.96354e-014
rhumerus 61.0934 -21.9294 -45.451
rradius 122.306
rwrist 13.2462
rhand -49.3492 16.0191
rfingers 7.12502
rthumb -21.9643 -12.7539
lclavicle 3.99557e-014 -5.96354e-014
lhumerus -40.2908 19.6727 59.7363
lradius 17.3909
lwrist -16.6429
lhand -26.4246 19.5843
lfingers 7.12502
lthumb 0.135695 49.564
rfemur 0 0 0
rtibia 0
rfoot 0 0
rtoes 0
lfemur 10.1878 -10.6075 -19.1973
ltibia 10.3155
lfoot -15.1448 23.881
ltoes -3.04398
